<svg preserveAspectRatio="none" width="100%" height="100%" overflow="visible" style="display: block;" viewBox="0 0 20 20" fill="none" xmlns="http://www.w3.org/2000/svg">
<g id="arrow_forward">
<mask id="mask0_15160_838" style="mask-type:alpha" maskUnits="userSpaceOnUse" x="0" y="0" width="20" height="20">
<rect id="Bounding box" width="20" height="20" fill="var(--fill-0, #D9D9D9)"/>
</mask>
<g mask="url(#mask0_15160_838)">
<path id="arrow_forward_2" d="M13.1621 10.8629H3.83467C3.59818 10.8629 3.39995 10.7808 3.23997 10.6164C3.07999 10.4521 3 10.2485 3 10.0056C3 9.76266 3.07999 9.55904 3.23997 9.39471C3.39995 9.23038 3.59818 9.14822 3.83467 9.14822H13.1621L9.07223 4.94721C8.9053 4.77574 8.82531 4.57569 8.83226 4.34706C8.83922 4.11844 8.92616 3.91839 9.0931 3.74692C9.26003 3.58974 9.45479 3.50757 9.67737 3.50043C9.89995 3.49328 10.0947 3.57545 10.2616 3.74692L15.7705 9.40543C15.8539 9.49116 15.9131 9.58404 15.9478 9.68407C15.9826 9.78409 16 9.89126 16 10.0056C16 10.1199 15.9826 10.2271 15.9478 10.3271C15.9131 10.4271 15.8539 10.52 15.7705 10.6057L10.2616 16.2642C10.1086 16.4214 9.91734 16.5 9.6878 16.5C9.45827 16.5 9.26003 16.4214 9.0931 16.2642C8.92616 16.0928 8.8427 15.8891 8.8427 15.6534C8.8427 15.4176 8.92616 15.214 9.0931 15.0425L13.1621 10.8629Z" fill="var(--fill-0, #B2FCE3)"/>
</g>
</g>
</svg>
