<svg preserveAspectRatio="none" width="100%" height="100%" overflow="visible" style="display: block;" viewBox="0 0 130 23" fill="none" xmlns="http://www.w3.org/2000/svg">
<g id="Layer_1" clip-path="url(#clip0_15160_118)">
<path id="Vector" d="M39.7057 14.6204C39.7057 9.53711 42.9262 6.21405 47.9318 6.21405C52.1858 6.21405 54.8791 8.58233 55.5003 12.4174H51.3402C50.9644 10.6572 49.743 9.57444 47.8692 9.57444C45.369 9.57444 43.7718 11.6547 43.7718 14.6257C43.7718 17.5967 45.3377 19.6449 47.8692 19.6449C49.7796 19.6449 50.9957 18.5248 51.3716 16.7379H55.5003C54.9052 20.6051 52.0605 23.0053 47.8065 23.0053C42.7696 23.0053 39.7057 19.7783 39.7057 14.631V14.6204Z" fill="var(--fill-0, white)"/>
<path id="Vector_2" d="M57.3167 14.6524C57.3167 9.56911 60.5685 6.21405 65.4176 6.21405C70.2666 6.21405 73.3618 9.28108 73.3618 14.1723C73.3618 14.5884 73.3618 15.0364 73.3305 15.5165H61.4715V15.7085C61.4715 18.2368 63.1314 19.8316 65.5376 19.8316C67.4793 19.8316 68.8521 18.9355 69.2592 17.3407H73.2C72.6676 20.4717 69.8856 23 65.7203 23C60.4955 23 57.3063 19.6769 57.3063 14.6577L57.3167 14.6524ZM69.3636 12.7375C69.0817 10.5292 67.6411 9.31841 65.4854 9.31841C63.4811 9.31841 61.8578 10.5986 61.5446 12.7375H69.3636Z" fill="var(--fill-0, white)"/>
<path id="Vector_3" d="M75.1156 17.4367H78.9312C79.0878 18.9409 80.4031 19.9917 82.6528 19.9917C84.6571 19.9917 85.8733 19.3196 85.8733 18.0394C85.8733 16.6953 84.5893 16.4712 82.2456 16.1832C78.4614 15.7672 75.4236 14.9671 75.4236 11.452C75.4236 8.25696 78.1743 6.20872 82.183 6.20872C86.1917 6.20872 89.2556 8.09694 89.4696 11.356H85.6227C85.4662 10.0438 84.2448 9.21174 82.277 9.21174C80.3092 9.21174 79.2757 9.85181 79.2757 11.0359C79.2757 12.3801 80.5597 12.6681 82.872 12.9242C86.6875 13.3722 89.7254 14.1083 89.7254 17.7514C89.7254 20.9784 86.7867 22.9947 82.6215 22.9947C78.2422 22.9947 75.2722 20.9464 75.1156 17.4314V17.4367Z" fill="var(--fill-0, white)"/>
<path id="Vector_4" d="M93.4783 18.2048V9.89448H90.7589V6.41141H93.4783V1.80288H97.4504V6.40608H101.36V9.88915H97.4504V19.3196H101.36V22.8026H97.9515C94.8876 22.8026 93.4783 21.2985 93.4783 18.1994V18.2048Z" fill="var(--fill-0, white)"/>
<path id="Vector_5" d="M113.762 18.2048C113.762 14.7537 116.236 12.8335 120.897 12.8335H124.462V11.9374C124.462 10.2412 123.335 9.28641 121.273 9.28641C119.425 9.28641 118.24 10.1185 118.021 11.4307H114.174C114.487 8.26763 117.301 6.21939 121.461 6.21939C125.84 6.21939 128.408 8.29963 128.408 12.1987V19.3622H130.005V22.8133H127.938C125.809 22.8133 125 21.7892 125 20.3224V20.2263C123.935 21.8905 122.28 23.0053 119.743 23.0053C116.241 23.0053 113.767 21.2771 113.767 18.2101L113.762 18.2048ZM124.462 16.0605V15.6125H120.803C118.83 15.6125 117.77 16.3806 117.77 17.8847C117.77 19.1969 118.773 19.997 120.401 19.997C122.933 19.997 124.467 18.4288 124.467 16.0659L124.462 16.0605Z" fill="var(--fill-0, white)"/>
<path id="Vector_6" d="M29.3969 6.47008H32.8575L33.2334 8.9237C34.0737 7.52087 35.3212 6.47008 37.9101 6.47008H38.7505V10.1665H37.0959C34.319 10.1665 33.3534 12.2041 33.3534 14.7217V22.8133H29.3917V6.47008H29.3969Z" fill="var(--fill-0, white)"/>
<path id="Vector_7" d="M103.824 6.47008H107.284L107.66 8.9237C108.5 7.52087 109.748 6.47008 112.337 6.47008H113.177V10.1665H111.523C108.746 10.1665 107.78 12.2041 107.78 14.7217V22.8133H103.818V6.47008H103.824Z" fill="var(--fill-0, white)"/>
<path id="Vector_8" d="M13.3414 0C5.98169 0 0 6.11271 0 13.6282C0 17.01 1.23183 20.2583 3.47105 22.776L3.50237 22.8133H9.19176L8.8577 22.616C5.91906 20.8558 4.09741 17.5327 4.09741 13.9323C4.09741 12.8868 4.25399 11.852 4.55673 10.8439L4.57761 10.7852C5.84076 6.72078 9.37445 3.98446 13.3675 3.98446C18.4775 3.98446 22.6375 8.44365 22.6375 13.9269C22.6375 17.5274 20.8106 20.8504 17.8772 22.6106L17.5432 22.808H23.1751L23.2065 22.7706C25.4457 20.253 26.6775 17.0046 26.6775 13.6229C26.6775 6.11271 20.6958 0 13.3414 0Z" fill="var(--fill-0, white)"/>
</g>
<defs>
<clipPath id="clip0_15160_118">
<rect width="130" height="23" fill="white"/>
</clipPath>
</defs>
</svg>
