<svg preserveAspectRatio="none" width="100%" height="100%" overflow="visible" style="display: block;" viewBox="0 0 91 91" fill="none" xmlns="http://www.w3.org/2000/svg">
<g id="Icon">
<path d="M27.7 1H8.91111C6.14196 1 4.75739 1 3.69971 1.53891C2.76936 2.01295 2.01295 2.76936 1.53891 3.69971C1 4.75739 1 6.14196 1 8.91111V27.7C1 30.4692 1 31.8537 1.53891 32.9114C2.01295 33.8418 2.76936 34.5982 3.69971 35.0722C4.75739 35.6111 6.14196 35.6111 8.91111 35.6111H27.7C30.4692 35.6111 31.8537 35.6111 32.9114 35.0722C33.8418 34.5982 34.5982 33.8418 35.0722 32.9114C35.6111 31.8537 35.6111 30.4692 35.6111 27.7V8.91111C35.6111 6.14196 35.6111 4.75739 35.0722 3.69971C34.5982 2.76936 33.8418 2.01295 32.9114 1.53891C31.8537 1 30.4692 1 27.7 1Z" stroke="var(--stroke-0, white)" stroke-width="2" stroke-linecap="round" stroke-linejoin="round"/>
<path d="M82.0889 1H63.3C60.5309 1 59.1463 1 58.0886 1.53891C57.1582 2.01295 56.4018 2.76936 55.9278 3.69971C55.3889 4.75739 55.3889 6.14196 55.3889 8.91111V27.7C55.3889 30.4692 55.3889 31.8537 55.9278 32.9114C56.4018 33.8418 57.1582 34.5982 58.0886 35.0722C59.1463 35.6111 60.5309 35.6111 63.3 35.6111H82.0889C84.858 35.6111 86.2426 35.6111 87.3003 35.0722C88.2307 34.5982 88.9871 33.8418 89.4611 32.9114C90 31.8537 90 30.4692 90 27.7V8.91111C90 6.14196 90 4.75739 89.4611 3.69971C88.9871 2.76936 88.2307 2.01295 87.3003 1.53891C86.2426 1 84.858 1 82.0889 1Z" stroke="var(--stroke-0, white)" stroke-width="2" stroke-linecap="round" stroke-linejoin="round"/>
<path d="M82.0889 55.3889H63.3C60.5309 55.3889 59.1463 55.3889 58.0886 55.9278C57.1582 56.4018 56.4018 57.1582 55.9278 58.0886C55.3889 59.1463 55.3889 60.5309 55.3889 63.3V82.0889C55.3889 84.858 55.3889 86.2426 55.9278 87.3003C56.4018 88.2307 57.1582 88.9871 58.0886 89.4611C59.1463 90 60.5309 90 63.3 90H82.0889C84.858 90 86.2426 90 87.3003 89.4611C88.2307 88.9871 88.9871 88.2307 89.4611 87.3003C90 86.2426 90 84.858 90 82.0889V63.3C90 60.5309 90 59.1463 89.4611 58.0886C88.9871 57.1582 88.2307 56.4018 87.3003 55.9278C86.2426 55.3889 84.858 55.3889 82.0889 55.3889Z" stroke="var(--stroke-0, white)" stroke-width="2" stroke-linecap="round" stroke-linejoin="round"/>
<path d="M27.7 55.3889H8.91111C6.14196 55.3889 4.75739 55.3889 3.69971 55.9278C2.76936 56.4018 2.01295 57.1582 1.53891 58.0886C1 59.1463 1 60.5309 1 63.3V82.0889C1 84.858 1 86.2426 1.53891 87.3003C2.01295 88.2307 2.76936 88.9871 3.69971 89.4611C4.75739 90 6.14196 90 8.91111 90H27.7C30.4692 90 31.8537 90 32.9114 89.4611C33.8418 88.9871 34.5982 88.2307 35.0722 87.3003C35.6111 86.2426 35.6111 84.858 35.6111 82.0889V63.3C35.6111 60.5309 35.6111 59.1463 35.0722 58.0886C34.5982 57.1582 33.8418 56.4018 32.9114 55.9278C31.8537 55.3889 30.4692 55.3889 27.7 55.3889Z" stroke="var(--stroke-0, white)" stroke-width="2" stroke-linecap="round" stroke-linejoin="round"/>
</g>
</svg>
