<svg preserveAspectRatio="none" width="100%" height="100%" overflow="visible" style="display: block;" viewBox="0 0 1401 242" fill="none" xmlns="http://www.w3.org/2000/svg">
<g id="Layer_1" clip-path="url(#clip0_15160_69)">
<path id="Vector" d="M427.905 153.832C427.905 100.347 462.612 65.3827 516.558 65.3827C562.403 65.3827 591.428 90.301 598.122 130.653H553.29C549.24 112.133 536.077 100.74 515.883 100.74C488.938 100.74 471.725 122.628 471.725 153.888C471.725 185.148 488.601 206.699 515.883 206.699C536.471 206.699 549.577 194.913 553.627 176.112H598.122C591.71 216.801 561.052 242.056 515.208 242.056C460.925 242.056 427.905 208.102 427.905 153.944V153.832Z" fill="var(--fill-0, #E6F1F4)"/>
<path id="Vector_2" d="M617.698 154.168C617.698 100.684 652.743 65.3827 705 65.3827C757.258 65.3827 790.615 97.6531 790.615 149.117C790.615 153.495 790.615 158.209 790.277 163.26H662.474V165.281C662.474 191.883 680.362 208.663 706.294 208.663C727.219 208.663 742.014 199.235 746.401 182.454H788.871C783.134 215.398 753.151 242 708.263 242C651.955 242 617.585 207.036 617.585 154.224L617.698 154.168ZM747.526 134.02C744.489 110.786 728.963 98.0459 705.731 98.0459C684.131 98.0459 666.637 111.515 663.262 134.02H747.526Z" fill="var(--fill-0, #E6F1F4)"/>
<path id="Vector_3" d="M809.515 183.464H850.635C852.323 199.291 866.498 210.347 890.743 210.347C912.343 210.347 925.45 203.276 925.45 189.806C925.45 175.663 911.612 173.306 886.355 170.276C845.573 165.898 812.834 157.48 812.834 120.495C812.834 86.8776 842.479 65.3265 885.68 65.3265C928.881 65.3265 961.901 85.1939 964.207 119.485H922.75C921.062 105.679 907.899 96.9235 886.693 96.9235C865.486 96.9235 854.348 103.658 854.348 116.117C854.348 130.26 868.186 133.291 893.105 135.985C934.225 140.699 966.963 148.444 966.963 186.776C966.963 220.73 935.294 241.944 890.405 241.944C843.21 241.944 811.203 220.393 809.515 183.408V183.464Z" fill="var(--fill-0, #E6F1F4)"/>
<path id="Vector_4" d="M1007.41 191.546V104.107H978.101V67.4592H1007.41V18.9694H1050.22V67.4031H1092.35V104.051H1050.22V203.276H1092.35V239.923H1055.62C1022.6 239.923 1007.41 224.097 1007.41 191.49V191.546Z" fill="var(--fill-0, #E6F1F4)"/>
<path id="Vector_5" d="M1226 191.546C1226 155.235 1252.66 135.031 1302.9 135.031H1341.32V125.602C1341.32 107.755 1329.17 97.7092 1306.95 97.7092C1287.03 97.7092 1274.27 106.464 1271.9 120.27H1230.45C1233.82 86.9898 1264.14 65.4388 1308.97 65.4388C1356.17 65.4388 1383.84 87.3265 1383.84 128.352V203.725H1401.06V240.036H1378.78C1355.83 240.036 1347.11 229.26 1347.11 213.827V212.816C1335.64 230.327 1317.8 242.056 1290.47 242.056C1252.72 242.056 1226.06 223.872 1226.06 191.602L1226 191.546ZM1341.32 168.985V164.27H1301.88C1280.62 164.27 1269.2 172.352 1269.2 188.179C1269.2 201.985 1280 210.403 1297.55 210.403C1324.84 210.403 1341.37 193.903 1341.37 169.041L1341.32 168.985Z" fill="var(--fill-0, #E6F1F4)"/>
<path id="Vector_6" d="M316.808 68.0765H354.103L358.153 93.8929C367.21 79.1327 380.654 68.0765 408.555 68.0765H417.611V106.969H399.779C369.854 106.969 359.447 128.408 359.447 154.898V240.036H316.752V68.0765H316.808Z" fill="var(--fill-0, #E6F1F4)"/>
<path id="Vector_7" d="M1118.9 68.0765H1156.19L1160.24 93.8929C1169.3 79.1327 1182.74 68.0765 1210.64 68.0765H1219.7V106.969H1201.87C1171.94 106.969 1161.54 128.408 1161.54 154.898V240.036H1118.84V68.0765H1118.9Z" fill="var(--fill-0, #E6F1F4)"/>
<path id="Vector_8" d="M143.779 0C64.4642 0 0 64.3163 0 143.393C0 178.974 13.2754 213.153 37.4073 239.643L37.7448 240.036H99.0589L95.4588 237.959C63.7892 219.439 44.1574 184.475 44.1574 146.592C44.1574 135.592 45.845 124.704 49.1076 114.097L49.3326 113.48C62.9454 70.7143 101.028 41.9235 144.06 41.9235C199.13 41.9235 243.963 88.8418 243.963 146.536C243.963 184.418 224.275 219.383 192.661 237.903L189.061 239.98H249.757L250.094 239.587C274.226 213.097 287.501 178.918 287.501 143.337C287.501 64.3163 223.037 0 143.779 0Z" fill="var(--fill-0, #E6F1F4)"/>
</g>
<defs>
<clipPath id="clip0_15160_69">
<rect width="1401" height="242" fill="white"/>
</clipPath>
</defs>
</svg>
