<svg preserveAspectRatio="none" width="100%" height="100%" overflow="visible" style="display: block;" viewBox="0 0 75.3331 71.623" fill="none" xmlns="http://www.w3.org/2000/svg">
<path id="Icon" d="M59.2185 63.6203C52.9541 68.1717 45.4096 70.623 37.6664 70.623C29.9231 70.623 22.3786 68.1717 16.1142 63.6203M53.74 1.00058C60.6995 4.39499 66.4059 9.90553 70.0411 16.7424C73.6763 23.5793 75.0538 31.3915 73.9762 39.0594M1.35688 39.059C0.279228 31.3911 1.65673 23.5789 5.29196 16.7421C8.92719 9.90518 14.6335 4.39464 21.5931 1.00023M57.833 33.9564C57.833 45.0941 48.8041 54.123 37.6664 54.123C26.5286 54.123 17.4997 45.0941 17.4997 33.9564C17.4997 22.8186 26.5286 13.7897 37.6664 13.7897C48.8041 13.7897 57.833 22.8186 57.833 33.9564Z" stroke="var(--stroke-0, #B2FCE3)" stroke-width="2" stroke-linecap="round" stroke-linejoin="round"/>
</svg>
