<svg preserveAspectRatio="none" width="100%" height="100%" overflow="visible" style="display: block;" viewBox="0 0 73 65" fill="none" xmlns="http://www.w3.org/2000/svg">
<g id="Icon">
<path d="M44.3889 24.625C48.0647 24.625 49.9025 24.625 51.3523 24.0256C53.2853 23.2263 54.821 21.6932 55.6217 19.7636C56.2222 18.3164 56.2222 16.4818 56.2222 12.8125C56.2222 9.14321 56.2222 7.30857 55.6217 5.86137C54.821 3.93177 53.2853 2.39872 51.3523 1.59945C49.9025 1 48.0647 1 44.3889 1L12.8333 1C9.15757 1 7.31969 1 5.86994 1.59945C3.93694 2.39871 2.40118 3.93177 1.60051 5.86137C1 7.30857 1 9.14321 1 12.8125C1 16.4818 1 18.3164 1.60051 19.7636C2.40118 21.6932 3.93694 23.2263 5.86994 24.0255C7.31969 24.625 9.15757 24.625 12.8333 24.625L44.3889 24.625Z" stroke="var(--stroke-0, #B2FCE3)" stroke-width="2" stroke-linecap="round" stroke-linejoin="round"/>
<path d="M60.1667 64C63.8424 64 65.6803 64 67.1301 63.4006C69.0631 62.6013 70.5988 61.0682 71.3995 59.1386C72 57.6914 72 55.8568 72 52.1875C72 48.5182 72 46.6836 71.3995 45.2364C70.5988 43.3068 69.0631 41.7737 67.1301 40.9745C65.6803 40.375 63.8424 40.375 60.1667 40.375H12.8333C9.15757 40.375 7.31969 40.375 5.86994 40.9744C3.93694 41.7737 2.40118 43.3068 1.60051 45.2364C1 46.6836 1 48.5182 1 52.1875C1 55.8568 1 57.6914 1.60051 59.1386C2.40118 61.0682 3.93694 62.6013 5.86994 63.4005C7.31969 64 9.15757 64 12.8333 64L60.1667 64Z" stroke="var(--stroke-0, #B2FCE3)" stroke-width="2" stroke-linecap="round" stroke-linejoin="round"/>
</g>
</svg>
