<svg preserveAspectRatio="none" width="100%" height="100%" overflow="visible" style="display: block;" viewBox="0 0 20 20" fill="none" xmlns="http://www.w3.org/2000/svg">
<g id="ri:linkedin-fill">
<path id="Vector" d="M5.78646 4.16652C5.78624 4.60855 5.61043 5.03239 5.29771 5.34479C4.985 5.6572 4.56099 5.83258 4.11896 5.83236C3.67693 5.83214 3.2531 5.65633 2.94069 5.34361C2.62829 5.0309 2.4529 4.60688 2.45313 4.16486C2.45335 3.72283 2.62915 3.29899 2.94187 2.98659C3.25459 2.67419 3.6786 2.4988 4.12063 2.49902C4.56265 2.49924 4.98649 2.67505 5.29889 2.98777C5.6113 3.30049 5.78668 3.7245 5.78646 4.16652ZM5.83646 7.06652H2.50313V17.4999H5.83646V7.06652ZM11.1031 7.06652H7.78646V17.4999H11.0698V12.0249C11.0698 8.97486 15.0448 8.69152 15.0448 12.0249V17.4999H18.3365V10.8915C18.3365 5.74986 12.4531 5.94152 11.0698 8.46652L11.1031 7.06652Z" fill="var(--fill-0, white)"/>
</g>
</svg>
