<svg preserveAspectRatio="none" width="100%" height="100%" overflow="visible" style="display: block;" viewBox="0 0 15 12.0024" fill="none" xmlns="http://www.w3.org/2000/svg">
<path id="Vector" d="M7.5 0C3.36516 0 0 3.21731 0 7.17047C0 8.9494 0.692461 10.6569 1.95284 11.9833L1.97028 12.0024H5.16855L4.98173 11.8976C3.33029 10.9736 2.30405 9.22326 2.30405 7.33003C2.30405 6.7823 2.39123 6.23457 2.5631 5.70589L2.57307 5.67732C3.28296 3.5388 5.27067 2.10042 7.51495 2.10042C10.3894 2.10042 12.7283 4.44612 12.7283 7.33003C12.7283 9.22326 11.7021 10.9736 10.0506 11.8976L9.86383 12.0024H13.0297L13.0472 11.9833C14.305 10.6569 15 8.9494 15 7.17047C15 3.21731 11.6348 0 7.5 0Z" fill="url(#paint0_linear_15160_824)"/>
<defs>
<linearGradient id="paint0_linear_15160_824" x1="16.8333" y1="13.5503" x2="-1.9684" y2="-0.717634" gradientUnits="userSpaceOnUse">
<stop stop-color="white"/>
<stop offset="0.06" stop-color="#FAFCFD"/>
<stop offset="0.12" stop-color="#EEF5F8"/>
<stop offset="0.18" stop-color="#D9E9F0"/>
<stop offset="0.25" stop-color="#BBD8E4"/>
<stop offset="0.31" stop-color="#96C2D6"/>
<stop offset="0.38" stop-color="#67A7C4"/>
<stop offset="0.44" stop-color="#3188AF"/>
<stop offset="0.49" stop-color="#006B9C"/>
<stop offset="0.51" stop-color="#0C75A0"/>
<stop offset="0.57" stop-color="#3898B2"/>
<stop offset="0.63" stop-color="#5DB7C1"/>
<stop offset="0.69" stop-color="#7CD0CD"/>
<stop offset="0.76" stop-color="#94E3D7"/>
<stop offset="0.83" stop-color="#A4F1DD"/>
<stop offset="0.9" stop-color="#AEF9E1"/>
<stop offset="1" stop-color="#B2FCE3"/>
</linearGradient>
</defs>
</svg>
