<svg preserveAspectRatio="none" width="100%" height="100%" overflow="visible" style="display: block;" viewBox="0 0 87.5001 95.6324" fill="none" xmlns="http://www.w3.org/2000/svg">
<path id="Icon" d="M43.7501 2.69119V47.8162M43.7501 47.8162L84.1251 25.3853M43.7501 47.8162L3.37506 25.3853M43.7501 47.8162V92.9412M84.1251 70.2467L47.441 49.8667C46.0938 49.1183 45.4203 48.7441 44.707 48.5974C44.0756 48.4675 43.4245 48.4675 42.7932 48.5974C42.0799 48.7441 41.4063 49.1183 40.0592 49.8667L3.37506 70.2468M86.5001 67.0943V28.5381C86.5001 26.9105 86.5001 26.0967 86.2603 25.3709C86.0481 24.7289 85.7013 24.1395 85.2431 23.6422C84.7251 23.0801 84.0137 22.6849 82.591 21.8945L47.441 2.36669C46.0938 1.61829 45.4203 1.24409 44.707 1.09738C44.0756 0.967539 43.4245 0.967539 42.7932 1.09738C42.0799 1.24409 41.4063 1.61829 40.0592 2.36669L4.90918 21.8945C3.48644 22.6849 2.77507 23.0801 2.25707 23.6422C1.79881 24.1395 1.45201 24.7289 1.23987 25.3709C1.00006 26.0967 1.00006 26.9105 1.00006 28.5381V67.0943C1.00006 68.7219 1.00006 69.5357 1.23987 70.2615C1.45201 70.9035 1.79881 71.4929 2.25707 71.9902C2.77507 72.5523 3.48644 72.9475 4.90918 73.7379L40.0592 93.2657C41.4063 94.0141 42.0799 94.3883 42.7932 94.535C43.4245 94.6648 44.0756 94.6648 44.707 94.535C45.4203 94.3883 46.0938 94.0141 47.441 93.2657L82.591 73.7379C84.0137 72.9475 84.7251 72.5523 85.2431 71.9902C85.7013 71.4929 86.0481 70.9035 86.2603 70.2615C86.5001 69.5357 86.5001 68.7219 86.5001 67.0943Z" stroke="var(--stroke-0, white)" stroke-width="2" stroke-linecap="round" stroke-linejoin="round"/>
</svg>
