<svg preserveAspectRatio="none" width="100%" height="100%" overflow="visible" style="display: block;" viewBox="0 0 155.416 27.151" fill="none" xmlns="http://www.w3.org/2000/svg">
<g id="Layer_1" clip-path="url(#clip0_15160_81)">
<path id="Vector" d="M47.4685 17.259C47.4685 11.2584 51.3187 7.33556 57.303 7.33556C62.3887 7.33556 65.6086 10.1313 66.3511 14.6585H61.3778C60.9285 12.5807 59.4683 11.3024 57.2281 11.3024C54.2391 11.3024 52.3296 13.7581 52.3296 17.2653C52.3296 20.7726 54.2016 23.1905 57.2281 23.1905C59.512 23.1905 60.9659 21.8682 61.4152 19.7588H66.3511C65.6398 24.3239 62.2389 27.1573 57.1532 27.1573C51.1315 27.1573 47.4685 23.3479 47.4685 17.2716V17.259Z" fill="var(--fill-0, white)"/>
<path id="Vector_2" d="M68.5227 17.2968C68.5227 11.2961 72.4103 7.33556 78.2073 7.33556C84.0044 7.33556 87.7048 10.9561 87.7048 16.7301C87.7048 17.2213 87.7048 17.7502 87.6674 18.3169H73.4898V18.5436C73.4898 21.5282 75.4742 23.4108 78.3509 23.4108C80.6722 23.4108 82.3133 22.353 82.8001 20.4703H87.5114C86.8749 24.1664 83.5489 27.151 78.5693 27.151C72.3229 27.151 68.5102 23.2282 68.5102 17.3031L68.5227 17.2968ZM82.9249 15.0363C82.5879 12.4295 80.8656 11.0002 78.2885 11.0002C75.8923 11.0002 73.9516 12.5114 73.5772 15.0363H82.9249Z" fill="var(--fill-0, white)"/>
<path id="Vector_3" d="M89.8015 20.5837H94.363C94.5502 22.3593 96.1227 23.5997 98.8122 23.5997C101.208 23.5997 102.662 22.8064 102.662 21.2952C102.662 19.7084 101.127 19.444 98.3255 19.104C93.8014 18.6128 90.1696 17.6683 90.1696 13.5188C90.1696 9.74717 93.4582 7.32927 98.2506 7.32927C103.043 7.32927 106.706 9.55827 106.962 13.4055H102.363C102.176 11.8565 100.715 10.8743 98.3629 10.8743C96.0104 10.8743 94.7749 11.6299 94.7749 13.0277C94.7749 14.6145 96.3099 14.9545 99.0743 15.2567C103.636 15.7856 107.268 16.6546 107.268 20.9552C107.268 24.7646 103.754 27.1447 98.7748 27.1447C93.5393 27.1447 89.9887 24.7268 89.8015 20.5774V20.5837Z" fill="var(--fill-0, white)"/>
<path id="Vector_4" d="M111.754 21.4904V11.6802H108.503V7.56854H111.754V2.12826H116.503V7.56224H121.177V11.6739H116.503V22.8064H121.177V26.9181H117.102C113.439 26.9181 111.754 25.1424 111.754 21.4841V21.4904Z" fill="var(--fill-0, white)"/>
<path id="Vector_5" d="M136.003 21.4904C136.003 17.4165 138.961 15.1497 144.534 15.1497H148.796V14.0918C148.796 12.0895 147.448 10.9624 144.983 10.9624C142.774 10.9624 141.357 11.9447 141.095 13.4937H136.496C136.871 9.75976 140.234 7.34186 145.207 7.34186C150.443 7.34186 153.513 9.79754 153.513 14.4004V22.8567H155.423V26.9307H152.951C150.405 26.9307 149.438 25.7217 149.438 23.9901V23.8768C148.165 25.8413 146.187 27.1573 143.154 27.1573C138.967 27.1573 136.01 25.1172 136.01 21.4967L136.003 21.4904ZM148.796 18.9591V18.4302H144.421C142.062 18.4302 140.796 19.3369 140.796 21.1126C140.796 22.6615 141.994 23.606 143.941 23.606C146.967 23.606 148.802 21.7548 148.802 18.9654L148.796 18.9591Z" fill="var(--fill-0, white)"/>
<path id="Vector_6" d="M35.1443 7.6378H39.2815L39.7308 10.5342C40.7355 8.87824 42.2268 7.6378 45.3219 7.6378H46.3266V12.0014H44.3485C41.0287 12.0014 39.8743 14.4067 39.8743 17.3787V26.9307H35.1381V7.6378H35.1443Z" fill="var(--fill-0, white)"/>
<path id="Vector_7" d="M124.122 7.6378H128.259L128.709 10.5342C129.713 8.87824 131.205 7.6378 134.3 7.6378H135.304V12.0014H133.326C130.007 12.0014 128.852 14.4067 128.852 17.3787V26.9307H124.116V7.6378H124.122Z" fill="var(--fill-0, white)"/>
<path id="Vector_8" d="M15.9497 0C7.15117 0 0 7.21593 0 16.0879C0 20.0799 1.47267 23.9146 4.14968 26.8866L4.18712 26.9307H10.9888L10.5895 26.6977C7.07629 24.6198 4.89849 20.697 4.89849 16.4468C4.89849 15.2126 5.08569 13.9911 5.44762 12.801L5.47258 12.7318C6.98269 7.93374 11.2072 4.70358 15.9809 4.70358C22.09 4.70358 27.0634 9.96755 27.0634 16.4405C27.0634 20.6907 24.8793 24.6135 21.3724 26.6914L20.973 26.9244H27.7061L27.7435 26.8803C30.4206 23.9083 31.8932 20.0736 31.8932 16.0816C31.8932 7.21593 24.742 0 15.9497 0Z" fill="var(--fill-0, white)"/>
</g>
<defs>
<clipPath id="clip0_15160_81">
<rect width="155.416" height="27.151" fill="white"/>
</clipPath>
</defs>
</svg>
