<svg preserveAspectRatio="none" width="100%" height="100%" overflow="visible" style="display: block;" viewBox="0 0 91 91" fill="none" xmlns="http://www.w3.org/2000/svg">
<path id="Icon" d="M45.5 1L39.7083 24.1666C38.5782 28.6872 38.0131 30.9475 36.8362 32.7867C35.7952 34.4136 34.4136 35.7952 32.7867 36.8362C30.9475 38.0131 28.6872 38.5782 24.1667 39.7083L1 45.5L24.1667 51.2917C28.6872 52.4218 30.9475 52.9869 32.7867 54.1638C34.4136 55.2048 35.7952 56.5864 36.8362 58.2133C38.0131 60.0525 38.5782 62.3128 39.7083 66.8333L45.5 90L51.2917 66.8333C52.4218 62.3128 52.9869 60.0525 54.1638 58.2133C55.2048 56.5864 56.5864 55.2048 58.2133 54.1638C60.0525 52.9869 62.3128 52.4218 66.8333 51.2917L90 45.5L66.8333 39.7083C62.3128 38.5782 60.0525 38.0131 58.2133 36.8362C56.5864 35.7952 55.2048 34.4136 54.1638 32.7867C52.9869 30.9475 52.4218 28.6872 51.2917 24.1667L45.5 1Z" stroke="var(--stroke-0, white)" stroke-width="2" stroke-linecap="round" stroke-linejoin="round"/>
</svg>
