<svg preserveAspectRatio="none" width="100%" height="100%" overflow="visible" style="display: block;" viewBox="0 0 15.2052 16.25" fill="none" xmlns="http://www.w3.org/2000/svg">
<g id="Group">
<path id="Vector" d="M11.6193 15.4317L0.730088 1.43167C0.672695 1.35776 0.637194 1.26923 0.627623 1.17615C0.618052 1.08306 0.634794 0.98916 0.675947 0.905119C0.717099 0.821077 0.78101 0.750271 0.86041 0.700752C0.93981 0.651234 1.03151 0.62499 1.12509 0.625007H3.19175C3.26784 0.62512 3.34289 0.642594 3.41119 0.676097C3.4795 0.709601 3.53926 0.75825 3.58592 0.81834L14.4751 14.8183C14.5325 14.8922 14.568 14.9808 14.5776 15.0739C14.5871 15.167 14.5704 15.2609 14.5292 15.3449C14.4881 15.4289 14.4242 15.4997 14.3448 15.5493C14.2654 15.5988 14.1737 15.625 14.0801 15.625H12.0134C11.9373 15.6249 11.8623 15.6074 11.794 15.5739C11.7257 15.5404 11.6659 15.4918 11.6193 15.4317Z" stroke="var(--stroke-0, white)" stroke-width="1.25"/>
<path id="Vector_2" d="M14.2708 0.625007L0.9375 15.625" stroke="var(--stroke-0, white)" stroke-width="1.25" stroke-linecap="round"/>
</g>
</svg>
