<svg preserveAspectRatio="none" width="100%" height="100%" overflow="visible" style="display: block;" viewBox="0 0 73.5419 72.4998" fill="none" xmlns="http://www.w3.org/2000/svg">
<g id="Group 1437">
<g id="Announcement icon background" filter="url(#filter0_f_15160_44)">
<rect x="11.625" y="11.625" width="49.2498" height="49.2498" rx="5.625" stroke="url(#paint0_linear_15160_44)" stroke-width="0.75"/>
</g>
<g id="Announcement icon background_2" filter="url(#filter1_f_15160_44)">
<rect x="12.6671" y="11.625" width="49.2498" height="49.2498" rx="5.625" stroke="var(--stroke-0, #B2FCE3)" stroke-width="0.75"/>
</g>
<path id="Vector" d="M36.2498 23.7502C27.6356 23.7502 20.6249 30.4529 20.6249 38.6886C20.6249 42.3947 22.0675 45.9519 24.6933 48.7154L24.7296 48.7551H31.3927L31.0035 48.5368C27.563 46.6118 25.425 42.9652 25.425 39.021C25.425 37.8799 25.6066 36.7388 25.9647 35.6374L25.9854 35.5779C27.4644 31.1227 31.6054 28.126 36.281 28.126C42.2694 28.126 47.1421 33.0129 47.1421 39.021C47.1421 42.9652 45.0042 46.6118 41.5637 48.5368L41.1745 48.7551H47.7701L47.8064 48.7154C50.427 45.9519 51.8748 42.3947 51.8748 38.6886C51.8748 30.4529 44.8641 23.7502 36.2498 23.7502Z" fill="url(#paint1_linear_15160_44)"/>
</g>
<defs>
<filter id="filter0_f_15160_44" x="-3.01807e-08" y="0" width="72.4998" height="72.4998" filterUnits="userSpaceOnUse" color-interpolation-filters="sRGB">
<feFlood flood-opacity="0" result="BackgroundImageFix"/>
<feBlend mode="normal" in="SourceGraphic" in2="BackgroundImageFix" result="shape"/>
<feGaussianBlur stdDeviation="5.625" result="effect1_foregroundBlur_15160_44"/>
</filter>
<filter id="filter1_f_15160_44" x="1.0421" y="0" width="72.4998" height="72.4998" filterUnits="userSpaceOnUse" color-interpolation-filters="sRGB">
<feFlood flood-opacity="0" result="BackgroundImageFix"/>
<feBlend mode="normal" in="SourceGraphic" in2="BackgroundImageFix" result="shape"/>
<feGaussianBlur stdDeviation="5.625" result="effect1_foregroundBlur_15160_44"/>
</filter>
<linearGradient id="paint0_linear_15160_44" x1="36.2499" y1="11.25" x2="36.2499" y2="61.2498" gradientUnits="userSpaceOnUse">
<stop stop-color="#B2FCE3"/>
<stop offset="0.495192" stop-color="#075772"/>
<stop offset="1" stop-color="#00BEFF"/>
</linearGradient>
<linearGradient id="paint1_linear_15160_44" x1="55.6941" y1="51.9799" x2="16.5241" y2="22.2551" gradientUnits="userSpaceOnUse">
<stop stop-color="white"/>
<stop offset="0.06" stop-color="#FAFCFD"/>
<stop offset="0.12" stop-color="#EEF5F8"/>
<stop offset="0.18" stop-color="#D9E9F0"/>
<stop offset="0.25" stop-color="#BBD8E4"/>
<stop offset="0.31" stop-color="#96C2D6"/>
<stop offset="0.38" stop-color="#67A7C4"/>
<stop offset="0.44" stop-color="#3188AF"/>
<stop offset="0.49" stop-color="#006B9C"/>
<stop offset="0.51" stop-color="#0C75A0"/>
<stop offset="0.57" stop-color="#3898B2"/>
<stop offset="0.63" stop-color="#5DB7C1"/>
<stop offset="0.69" stop-color="#7CD0CD"/>
<stop offset="0.76" stop-color="#94E3D7"/>
<stop offset="0.83" stop-color="#A4F1DD"/>
<stop offset="0.9" stop-color="#AEF9E1"/>
<stop offset="1" stop-color="#B2FCE3"/>
</linearGradient>
</defs>
</svg>
