<svg preserveAspectRatio="none" width="100%" height="100%" overflow="visible" style="display: block;" viewBox="0 0 78.0002 73" fill="none" xmlns="http://www.w3.org/2000/svg">
<path id="Icon" d="M39.0001 25.6408L8.84277 44.3132C6.22895 45.9316 4.92203 46.7408 4.4694 47.767C4.07383 48.6638 4.07383 49.6745 4.4694 50.5713M39.0001 25.6408L69.1574 44.3132C71.7712 45.9316 73.0782 46.7408 73.5308 47.767C73.9264 48.6638 73.9264 49.6745 73.5308 50.5713M39.0001 25.6408V2.1124M39.0001 47.3592L8.84277 28.6868C6.22895 27.0684 4.92203 26.2592 4.4694 25.233C4.07383 24.3362 4.07383 23.3255 4.4694 22.4287M39.0001 47.3592L69.1574 28.6868C71.7712 27.0684 73.0782 26.2592 73.5308 25.233C73.9264 24.3362 73.9264 23.3255 73.5308 22.4287M39.0001 47.3592V70.8876M74.2336 50.882L42.3136 70.6458C41.1143 71.3885 40.5146 71.7598 39.8684 71.9042C39.2973 72.0319 38.7029 72.0319 38.1317 71.9042C37.4856 71.7598 36.8859 71.3885 35.6866 70.6458L3.76657 50.882C2.75575 50.2562 2.25034 49.9432 1.88416 49.5258C1.56001 49.1563 1.31652 48.7289 1.16794 48.2686C1.00009 47.7487 1.00009 47.1745 1.00009 46.0261V26.9739C1.00009 25.8255 1.00009 25.2513 1.16794 24.7313C1.31652 24.2711 1.56001 23.8437 1.88416 23.4742C2.25034 23.0568 2.75575 22.7438 3.76657 22.118L35.6866 2.35415C36.8859 1.61155 37.4856 1.24024 38.1317 1.09578C38.7029 0.968075 39.2973 0.968075 39.8684 1.09578C40.5146 1.24024 41.1143 1.61155 42.3136 2.35416L74.2336 22.118C75.2444 22.7438 75.7499 23.0568 76.116 23.4742C76.4402 23.8437 76.6837 24.2711 76.8322 24.7313C77.0001 25.2513 77.0001 25.8255 77.0001 26.9739V46.0261C77.0001 47.1745 77.0001 47.7487 76.8322 48.2686C76.6837 48.7289 76.4402 49.1563 76.116 49.5258C75.7499 49.9432 75.2444 50.2562 74.2336 50.882Z" stroke="var(--stroke-0, #B2FCE3)" stroke-width="2" stroke-linecap="round" stroke-linejoin="round"/>
</svg>
