<svg preserveAspectRatio="none" width="100%" height="100%" overflow="visible" style="display: block;" viewBox="0 0 345 427" fill="none" xmlns="http://www.w3.org/2000/svg">
<path id="Icon" d="M108.188 203.52L151.063 246.463L247.531 149.841M344 214.256C344 319.648 229.224 396.3 187.463 420.702C182.717 423.475 180.344 424.862 176.995 425.581C174.396 426.14 170.604 426.14 168.005 425.581C164.656 424.862 162.283 423.475 157.537 420.702C115.776 396.3 1 319.648 1 214.256V111.57C1 94.4032 1 85.8199 3.80318 78.4416C6.27951 71.9236 10.3035 66.1078 15.5273 61.4968C21.4406 56.2772 29.4647 53.2634 45.5129 47.2358L160.456 4.06343C164.913 2.38948 167.142 1.55251 169.434 1.22072C171.467 0.926427 173.533 0.926427 175.566 1.22072C177.858 1.55251 180.087 2.38948 184.544 4.06342L299.487 47.2358C315.535 53.2634 323.559 56.2772 329.473 61.4968C334.697 66.1078 338.72 71.9236 341.197 78.4416C344 85.8199 344 94.4032 344 111.57V214.256Z" stroke="var(--stroke-0, #B2FCE3)" stroke-width="2" stroke-linecap="round" stroke-linejoin="round"/>
</svg>
