<svg preserveAspectRatio="none" width="100%" height="100%" overflow="visible" style="display: block;" viewBox="0 0 396 396" fill="none" xmlns="http://www.w3.org/2000/svg">
<path id="Icon" d="M178.3 50.25H322.11C344.176 50.25 355.209 50.25 363.637 54.5443C371.051 58.3218 377.078 64.3492 380.856 71.7628C385.15 80.1909 385.15 91.2239 385.15 113.29V138.9C385.15 157.258 385.15 166.437 382.151 173.678C378.152 183.332 370.482 191.002 360.828 195.001C353.587 198 344.408 198 326.05 198M217.7 345.75H73.89C51.8239 345.75 40.7909 345.75 32.3628 341.456C24.9492 337.678 18.9218 331.651 15.1443 324.237C10.85 315.809 10.85 304.776 10.85 282.71V257.1C10.85 238.742 10.85 229.563 13.8491 222.322C17.848 212.668 25.5182 204.998 35.1723 200.999C42.4129 198 51.5919 198 69.95 198M164.51 247.25H231.49C237.007 247.25 239.765 247.25 241.872 246.176C243.725 245.232 245.232 243.725 246.176 241.872C247.25 239.765 247.25 237.007 247.25 231.49V164.51C247.25 158.993 247.25 156.235 246.176 154.128C245.232 152.275 243.725 150.768 241.872 149.824C239.765 148.75 237.007 148.75 231.49 148.75H164.51C158.993 148.75 156.235 148.75 154.128 149.824C152.275 150.768 150.768 152.275 149.824 154.128C148.75 156.235 148.75 158.993 148.75 164.51V231.49C148.75 237.007 148.75 239.765 149.824 241.872C150.768 243.725 152.275 245.232 154.128 246.176C156.235 247.25 158.993 247.25 164.51 247.25ZM312.26 395H379.24C384.757 395 387.515 395 389.622 393.926C391.475 392.982 392.982 391.475 393.926 389.622C395 387.515 395 384.757 395 379.24V312.26C395 306.743 395 303.985 393.926 301.878C392.982 300.025 391.475 298.518 389.622 297.574C387.515 296.5 384.757 296.5 379.24 296.5H312.26C306.743 296.5 303.985 296.5 301.878 297.574C300.025 298.518 298.518 300.025 297.574 301.878C296.5 303.985 296.5 306.743 296.5 312.26V379.24C296.5 384.757 296.5 387.515 297.574 389.622C298.518 391.475 300.025 392.982 301.878 393.926C303.985 395 306.743 395 312.26 395ZM16.76 99.5H83.74C89.2565 99.5 92.0148 99.5 94.1218 98.4264C95.9752 97.4821 97.4821 95.9752 98.4264 94.1218C99.5 92.0148 99.5 89.2565 99.5 83.74V16.76C99.5 11.2435 99.5 8.48522 98.4264 6.37819C97.4821 4.5248 95.9752 3.01794 94.1218 2.07359C92.0148 1 89.2565 1 83.74 1H16.76C11.2435 1 8.48522 1 6.37819 2.07359C4.5248 3.01794 3.01794 4.5248 2.07359 6.37819C1 8.48522 1 11.2435 1 16.76V83.74C1 89.2565 1 92.0148 2.07359 94.1218C3.01794 95.9752 4.5248 97.4821 6.37819 98.4264C8.48522 99.5 11.2435 99.5 16.76 99.5Z" stroke="var(--stroke-0, #B2FCE3)" stroke-width="2" stroke-linecap="round" stroke-linejoin="round"/>
</svg>
